<svg width="914" height="915" viewBox="0 0 914 915" fill="none" xmlns="http://www.w3.org/2000/svg">
<g filter="url(#filter0_f_5_13)">
<path d="M581.987 758.984C640.069 817.055 708.8 708.656 776.564 776.405C709.768 709.624 818.189 640.907 759.139 581.869C841.422 581.869 813.349 457.017 908.218 457.017C813.349 457.017 841.422 332.165 759.139 332.165C817.221 274.094 708.8 205.377 776.564 137.628C709.768 204.41 641.037 96.0111 581.987 155.05C581.987 72.7828 457.109 100.85 457.109 6.00159C457.109 100.85 332.231 72.7828 332.231 155.05V156.017C274.148 97.9468 205.417 206.345 137.654 138.596C204.449 205.377 96.0282 274.094 155.079 333.133C72.7951 333.133 100.868 457.985 6 457.985C100.868 457.985 72.7951 582.837 155.079 582.837C96.9962 640.907 205.417 709.624 137.654 777.373C204.449 710.592 273.18 818.99 332.231 759.952C332.231 842.219 457.109 814.151 457.109 909C457.109 814.151 581.987 842.219 581.987 758.984Z" stroke="#F0EBF9" stroke-width="5" stroke-miterlimit="10" stroke-linecap="round" stroke-linejoin="round"/>
<path d="M457.109 699.946C480.342 757.049 558.753 701.882 585.859 766.727C558.753 701.882 652.654 685.428 629.421 628.325C686.535 651.554 702.992 557.673 767.851 584.772C702.992 557.673 757.203 479.277 701.056 456.049C758.171 432.821 702.992 354.426 767.851 327.326C702.992 354.426 686.535 260.545 629.421 283.773C652.654 226.67 558.753 210.217 585.859 145.371C558.753 210.217 480.342 156.018 457.109 212.153C433.876 155.05 355.464 210.217 328.359 145.371C355.464 210.217 261.564 226.67 284.797 283.773C227.682 260.545 211.225 354.426 146.366 327.326C211.225 354.426 157.015 432.821 213.162 456.049C157.015 480.245 211.225 557.673 146.366 584.772C211.225 557.673 227.682 651.554 284.797 628.325C261.564 685.428 355.464 701.882 328.359 766.727C354.496 701.882 432.908 757.049 457.109 699.946Z" stroke="#F0EBF9" stroke-width="5" stroke-miterlimit="10" stroke-linecap="round" stroke-linejoin="round"/>
<path d="M525.84 623.486C557.785 655.425 595.539 596.387 633.293 633.165C596.507 596.387 656.526 558.641 623.612 525.734C669.11 525.734 653.622 457.017 705.896 457.017C653.622 457.017 669.11 388.3 623.612 388.3C655.558 356.361 596.507 318.616 633.293 280.87C596.507 317.648 558.753 257.641 525.84 290.548C525.84 245.059 457.109 260.545 457.109 208.281C457.109 260.545 388.378 245.059 388.378 290.548C356.432 258.609 318.678 317.648 280.925 280.87C317.71 317.648 257.692 355.394 290.605 388.3C245.107 388.3 260.596 457.017 208.321 457.017C260.596 457.017 245.107 525.734 290.605 525.734C258.66 557.673 317.71 595.419 280.925 633.165C317.71 596.387 355.464 656.393 388.378 623.486C388.378 668.975 457.109 653.49 457.109 705.753C457.109 653.49 525.84 668.975 525.84 623.486Z" stroke="#F0EBF9" stroke-width="5" stroke-miterlimit="10" stroke-linecap="round" stroke-linejoin="round"/>
<path d="M457.109 592.515C470.661 624.454 514.223 593.483 528.744 630.261C513.255 593.483 566.498 584.772 552.945 552.833C584.89 566.383 593.603 513.152 630.389 528.637C593.603 513.152 624.58 469.599 592.635 457.017C624.58 443.467 593.603 399.914 630.389 385.396C593.603 400.882 584.89 347.651 552.945 361.2C566.498 329.261 513.255 320.551 528.744 283.773C513.255 320.551 469.693 289.58 457.109 321.519C443.556 289.58 399.994 320.551 385.473 283.773C400.962 320.551 347.72 329.261 361.272 361.2C329.327 347.651 320.614 400.882 283.829 385.396C320.614 400.882 289.637 444.435 321.582 457.017C289.637 470.567 320.614 514.12 283.829 528.637C320.614 513.152 329.327 566.383 361.272 552.833C347.72 584.772 400.962 593.483 385.473 630.261C399.994 593.483 443.556 624.454 457.109 592.515Z" stroke="#F0EBF9" stroke-width="5" stroke-miterlimit="10" stroke-linecap="round" stroke-linejoin="round"/>
<path d="M496.799 551.866C515.191 570.255 537.456 536.38 557.785 557.673C536.488 536.38 570.37 515.088 551.977 496.699C578.114 496.699 569.402 457.017 599.411 457.017C569.402 457.017 578.114 417.335 551.977 417.335C570.37 398.946 536.488 376.686 557.785 356.361C536.488 377.654 515.191 343.779 496.799 362.168C496.799 336.037 457.109 344.747 457.109 314.744C457.109 344.747 417.419 336.037 417.419 362.168C399.026 343.779 376.761 377.654 356.432 356.361C377.729 377.654 343.848 398.946 362.24 417.335C336.103 417.335 344.816 457.017 314.806 457.017C344.816 457.017 336.103 496.699 362.24 496.699C343.848 515.088 377.729 537.348 356.432 557.673C377.729 536.38 399.026 570.255 417.419 551.866C417.419 577.997 457.109 569.287 457.109 599.29C457.109 569.287 496.799 577.997 496.799 551.866Z" stroke="#F0EBF9" stroke-width="5" stroke-miterlimit="10" stroke-linecap="round" stroke-linejoin="round"/>
<path d="M457.109 536.38C464.853 554.769 490.022 537.348 498.735 558.64C490.022 537.348 521 531.541 513.255 513.152C531.648 520.895 537.456 489.924 558.753 498.634C537.456 489.924 555.849 463.792 536.488 456.049C554.881 448.306 537.456 423.142 558.753 414.432C537.456 423.142 531.648 392.171 513.255 399.914C521 381.525 490.022 375.718 498.735 354.425C490.022 375.718 463.885 357.329 456.141 376.686C448.396 358.297 423.227 375.718 414.515 354.425C423.227 375.718 392.25 381.525 399.994 399.914C381.601 392.171 375.793 423.142 354.496 414.432C375.793 423.142 357.4 449.274 376.761 457.017C358.368 464.76 375.793 489.924 354.496 498.634C375.793 489.924 381.601 520.895 399.994 513.152C392.25 531.541 423.227 537.348 414.515 558.64C423.227 537.348 449.364 554.769 457.109 536.38Z" stroke="#F0EBF9" stroke-width="5" stroke-miterlimit="10" stroke-linecap="round" stroke-linejoin="round"/>
<path d="M480.342 514.12C490.99 524.766 504.543 504.441 517.127 517.023C504.543 504.441 524.872 490.891 514.223 480.245C529.712 480.245 524.872 456.049 542.296 456.049C523.904 456.049 529.712 431.853 514.223 431.853C524.872 421.207 504.543 407.657 517.127 395.075C504.543 407.657 490.99 387.332 480.342 397.978C480.342 382.493 456.14 387.332 456.14 369.911C456.14 388.3 431.939 382.493 431.939 397.978C421.291 387.332 407.738 407.657 395.154 395.075C407.738 407.657 387.409 421.207 398.058 431.853C382.569 431.853 387.409 456.049 369.985 456.049C388.377 456.049 382.569 480.245 398.058 480.245C387.409 490.891 407.738 504.441 395.154 517.023C407.738 504.441 421.291 524.766 431.939 514.12C431.939 529.605 456.14 524.766 456.14 542.187C457.109 524.766 480.342 529.605 480.342 514.12Z" stroke="#F0EBF9" stroke-width="5" stroke-miterlimit="10" stroke-linecap="round" stroke-linejoin="round"/>
<path d="M457.109 504.441C461.949 516.055 477.438 504.441 482.278 517.991C476.47 505.409 495.83 501.538 490.99 490.891C502.607 495.73 505.511 477.341 518.095 482.181C505.511 476.374 516.159 461.856 504.543 457.017C516.159 452.178 504.543 436.692 518.095 431.853C505.511 437.66 501.639 418.303 490.99 423.142C495.83 411.528 477.438 408.625 482.278 396.043C476.47 408.625 461.949 397.978 457.109 409.592C452.268 397.978 436.78 409.592 431.94 396.043C437.748 408.625 418.387 412.496 423.227 423.142C411.611 418.303 408.706 436.692 396.122 431.853C408.706 437.66 398.058 452.178 409.674 457.017C398.058 461.856 409.674 477.341 396.122 482.181C408.706 476.374 412.579 495.73 423.227 490.891C418.387 502.505 436.78 505.409 431.94 517.991C436.78 505.409 452.268 516.055 457.109 504.441Z" stroke="#F0EBF9" stroke-width="5" stroke-miterlimit="10" stroke-linecap="round" stroke-linejoin="round"/>
<path d="M457.109 498.634C480.633 498.634 499.703 479.568 499.703 456.049C499.703 432.53 480.633 413.464 457.109 413.464C433.585 413.464 414.515 432.53 414.515 456.049C414.515 479.568 433.585 498.634 457.109 498.634Z" stroke="#F0EBF9" stroke-width="5" stroke-miterlimit="10" stroke-linecap="round" stroke-linejoin="round"/>
</g>
<defs>
<filter id="filter0_f_5_13" x="0.5" y="0.501587" width="913.218" height="913.998" filterUnits="userSpaceOnUse" color-interpolation-filters="sRGB">
<feFlood flood-opacity="0" result="BackgroundImageFix"/>
<feBlend mode="normal" in="SourceGraphic" in2="BackgroundImageFix" result="shape"/>
<feGaussianBlur stdDeviation="1.5" result="effect1_foregroundBlur_5_13"/>
</filter>
</defs>
</svg>
